<?xml version="1.0" encoding="UTF-8"?>
<!DOCTYPE svg PUBLIC "-//W3C//DTD SVG 1.1//EN" "http://www.w3.org/Graphics/SVG/1.1/DTD/svg11.dtd">
<svg version="1.2" width="38.64mm" height="36.07mm" viewBox="7352 7622 3864 3607" preserveAspectRatio="xMidYMid" fill-rule="evenodd" stroke-width="28.222" stroke-linejoin="round" xmlns="http://www.w3.org/2000/svg" xmlns:ooo="http://xml.openoffice.org/svg/export" xmlns:xlink="http://www.w3.org/1999/xlink" xmlns:presentation="http://sun.com/xmlns/staroffice/presentation" xmlns:smil="http://www.w3.org/2001/SMIL20/" xmlns:anim="urn:oasis:names:tc:opendocument:xmlns:animation:1.0" xml:space="preserve">
 <defs class="EmbeddedBulletChars">
  <g id="bullet-char-template-57356" transform="scale(0.00048828125,-0.00048828125)">
   <path d="M 580,1141 L 1163,571 580,0 -4,571 580,1141 Z"/>
  </g>
  <g id="bullet-char-template-57354" transform="scale(0.00048828125,-0.00048828125)">
   <path d="M 8,1128 L 1137,1128 1137,0 8,0 8,1128 Z"/>
  </g>
  <g id="bullet-char-template-10146" transform="scale(0.00048828125,-0.00048828125)">
   <path d="M 174,0 L 602,739 174,1481 1456,739 174,0 Z M 1358,739 L 309,1346 659,739 1358,739 Z"/>
  </g>
  <g id="bullet-char-template-10132" transform="scale(0.00048828125,-0.00048828125)">
   <path d="M 2015,739 L 1276,0 717,0 1260,543 174,543 174,936 1260,936 717,1481 1274,1481 2015,739 Z"/>
  </g>
  <g id="bullet-char-template-10007" transform="scale(0.00048828125,-0.00048828125)">
   <path d="M 0,-2 C -7,14 -16,27 -25,37 L 356,567 C 262,823 215,952 215,954 215,979 228,992 255,992 264,992 276,990 289,987 310,991 331,999 354,1012 L 381,999 492,748 772,1049 836,1024 860,1049 C 881,1039 901,1025 922,1006 886,937 835,863 770,784 769,783 710,716 594,584 L 774,223 C 774,196 753,168 711,139 L 727,119 C 717,90 699,76 672,76 641,76 570,178 457,381 L 164,-76 C 142,-110 111,-127 72,-127 30,-127 9,-110 8,-76 1,-67 -2,-52 -2,-32 -2,-23 -1,-13 0,-2 Z"/>
  </g>
  <g id="bullet-char-template-10004" transform="scale(0.00048828125,-0.00048828125)">
   <path d="M 285,-33 C 182,-33 111,30 74,156 52,228 41,333 41,471 41,549 55,616 82,672 116,743 169,778 240,778 293,778 328,747 346,684 L 369,508 C 377,444 397,411 428,410 L 1163,1116 C 1174,1127 1196,1133 1229,1133 1271,1133 1292,1118 1292,1087 L 1292,965 C 1292,929 1282,901 1262,881 L 442,47 C 390,-6 338,-33 285,-33 Z"/>
  </g>
  <g id="bullet-char-template-9679" transform="scale(0.00048828125,-0.00048828125)">
   <path d="M 813,0 C 632,0 489,54 383,161 276,268 223,411 223,592 223,773 276,916 383,1023 489,1130 632,1184 813,1184 992,1184 1136,1130 1245,1023 1353,916 1407,772 1407,592 1407,412 1353,268 1245,161 1136,54 992,0 813,0 Z"/>
  </g>
  <g id="bullet-char-template-8226" transform="scale(0.00048828125,-0.00048828125)">
   <path d="M 346,457 C 273,457 209,483 155,535 101,586 74,649 74,723 74,796 101,859 155,911 209,963 273,989 346,989 419,989 480,963 531,910 582,859 608,796 608,723 608,648 583,586 532,535 482,483 420,457 346,457 Z"/>
  </g>
  <g id="bullet-char-template-8211" transform="scale(0.00048828125,-0.00048828125)">
   <path d="M -4,459 L 1135,459 1135,606 -4,606 -4,459 Z"/>
  </g>
  <g id="bullet-char-template-61548" transform="scale(0.00048828125,-0.00048828125)">
   <path d="M 173,740 C 173,903 231,1043 346,1159 462,1274 601,1332 765,1332 928,1332 1067,1274 1183,1159 1299,1043 1357,903 1357,740 1357,577 1299,437 1183,322 1067,206 928,148 765,148 601,148 462,206 346,322 231,437 173,577 173,740 Z"/>
  </g>
 </defs>
 <g class="Page">
  <g class="com.sun.star.drawing.CustomShape">
   <g id="id3">
    <rect class="BoundingBox" stroke="none" fill="none" x="7472" y="7622" width="3608" height="3607"/>
    <path fill="rgb(189,189,189)" stroke="none" d="M 11025,9425 C 11025,9732 10944,10034 10791,10300 10637,10566 10416,10787 10150,10941 9884,11094 9582,11175 9275,11175 8968,11175 8666,11094 8400,10941 8134,10787 7913,10566 7759,10300 7606,10034 7525,9732 7525,9425 7525,9118 7606,8816 7759,8550 7913,8284 8134,8063 8400,7909 8666,7756 8968,7675 9275,7675 9582,7675 9884,7756 10150,7909 10416,8063 10637,8284 10791,8550 10944,8816 11025,9118 11025,9425 L 11025,9425 Z"/>
    <path fill="none" stroke="rgb(0,0,0)" stroke-width="106" stroke-linejoin="round" d="M 11025,9425 C 11025,9732 10944,10034 10791,10300 10637,10566 10416,10787 10150,10941 9884,11094 9582,11175 9275,11175 8968,11175 8666,11094 8400,10941 8134,10787 7913,10566 7759,10300 7606,10034 7525,9732 7525,9425 7525,9118 7606,8816 7759,8550 7913,8284 8134,8063 8400,7909 8666,7756 8968,7675 9275,7675 9582,7675 9884,7756 10150,7909 10416,8063 10637,8284 10791,8550 10944,8816 11025,9118 11025,9425 L 11025,9425 Z"/>
   </g>
  </g>
  <g class="com.sun.star.drawing.CustomShape">
   <g id="id4">
    <rect class="BoundingBox" stroke="none" fill="none" x="8597" y="8747" width="1358" height="1358"/>
    <path fill="none" stroke="rgb(0,0,0)" stroke-width="106" stroke-linejoin="round" d="M 9901,9426 C 9901,9535 9872,9643 9817,9738 9762,9833 9683,9912 9588,9967 9493,10022 9385,10051 9276,10051 9166,10051 9058,10022 8963,9967 8868,9912 8789,9833 8734,9738 8679,9643 8650,9535 8650,9426 8650,9316 8679,9208 8734,9113 8789,9018 8868,8939 8963,8884 9058,8829 9166,8800 9276,8800 9385,8800 9493,8829 9588,8884 9683,8939 9762,9018 9817,9113 9872,9208 9901,9316 9901,9426 Z"/>
   </g>
  </g>
  <g class="com.sun.star.drawing.CustomShape">
   <g id="id5">
    <rect class="BoundingBox" stroke="none" fill="none" x="7960" y="8110" width="2632" height="2632"/>
    <path fill="none" stroke="rgb(0,0,0)" stroke-width="106" stroke-linejoin="round" d="M 10538,9426 C 10538,9647 10480,9865 10369,10057 10258,10249 10099,10408 9907,10519 9715,10630 9497,10688 9276,10688 9054,10688 8836,10630 8644,10519 8452,10408 8293,10249 8182,10057 8071,9865 8013,9647 8013,9426 8013,9204 8071,8986 8182,8794 8293,8602 8452,8443 8644,8332 8836,8221 9054,8163 9275,8163 9497,8163 9715,8221 9907,8332 10099,8443 10258,8602 10369,8794 10480,8986 10538,9204 10538,9425 L 10538,9426 Z"/>
   </g>
  </g>
  <g class="com.sun.star.drawing.CustomShape">
   <g id="id6">
    <rect class="BoundingBox" stroke="none" fill="none" x="7352" y="8600" width="503" height="503"/>
    <path fill="rgb(251,192,45)" stroke="none" d="M 7854,8851 C 7854,8895 7842,8939 7820,8977 7798,9015 7767,9046 7729,9068 7691,9090 7647,9102 7603,9102 7560,9102 7516,9090 7478,9068 7440,9046 7409,9015 7387,8977 7365,8939 7353,8895 7353,8851 7353,8808 7365,8764 7387,8726 7409,8688 7440,8657 7478,8635 7516,8613 7560,8601 7603,8601 7647,8601 7691,8613 7729,8635 7767,8657 7798,8688 7820,8726 7842,8764 7854,8808 7854,8851 L 7854,8851 Z"/>
   </g>
  </g>
  <g class="com.sun.star.drawing.CustomShape">
   <g id="id7">
    <rect class="BoundingBox" stroke="none" fill="none" x="7902" y="9701" width="503" height="502"/>
    <path fill="rgb(142,36,170)" stroke="none" d="M 8404,9952 C 8404,9995 8392,10039 8370,10077 8348,10115 8317,10146 8279,10168 8241,10190 8197,10202 8154,10202 8110,10202 8066,10190 8028,10168 7990,10146 7959,10115 7937,10077 7915,10039 7903,9995 7903,9952 7903,9908 7915,9864 7937,9826 7959,9788 7990,9757 8028,9735 8066,9713 8110,9701 8154,9701 8197,9701 8241,9713 8279,9735 8317,9757 8348,9788 8370,9826 8392,9864 8404,9908 8404,9952 L 8404,9952 Z"/>
   </g>
  </g>
  <g class="com.sun.star.drawing.CustomShape">
   <g id="id8">
    <rect class="BoundingBox" stroke="none" fill="none" x="10713" y="9650" width="503" height="503"/>
    <path fill="rgb(118,255,3)" stroke="none" d="M 11215,9901 C 11215,9945 11203,9989 11181,10027 11159,10065 11128,10096 11090,10118 11052,10140 11008,10152 10964,10152 10921,10152 10877,10140 10839,10118 10801,10096 10770,10065 10748,10027 10726,9989 10714,9945 10714,9901 10714,9858 10726,9814 10748,9776 10770,9738 10801,9707 10839,9685 10877,9663 10921,9651 10964,9651 11008,9651 11052,9663 11090,9685 11128,9707 11159,9738 11181,9776 11203,9814 11215,9858 11215,9901 L 11215,9901 Z"/>
   </g>
  </g>
  <g class="com.sun.star.drawing.CustomShape">
   <g id="id9">
    <rect class="BoundingBox" stroke="none" fill="none" x="9482" y="8771" width="502" height="503"/>
    <path fill="rgb(229,57,53)" stroke="none" d="M 9983,9022 C 9983,9066 9971,9110 9949,9148 9927,9186 9896,9217 9858,9239 9820,9261 9776,9273 9733,9273 9689,9273 9645,9261 9607,9239 9569,9217 9538,9186 9516,9148 9494,9110 9482,9066 9482,9022 9482,8979 9494,8935 9516,8897 9538,8859 9569,8828 9607,8806 9645,8784 9689,8772 9733,8772 9776,8772 9820,8784 9858,8806 9896,8828 9927,8859 9949,8897 9971,8935 9983,8979 9983,9022 L 9983,9022 Z"/>
   </g>
  </g>
  <g class="com.sun.star.drawing.CustomShape">
   <g id="id10">
    <rect class="BoundingBox" stroke="none" fill="none" x="9952" y="7652" width="503" height="502"/>
    <path fill="rgb(92,107,192)" stroke="none" d="M 10454,7903 C 10454,7946 10442,7990 10420,8028 10398,8066 10367,8097 10329,8119 10291,8141 10247,8153 10203,8153 10160,8153 10116,8141 10078,8119 10040,8097 10009,8066 9987,8028 9965,7990 9953,7946 9953,7903 9953,7859 9965,7815 9987,7777 10009,7739 10040,7708 10078,7686 10116,7664 10160,7652 10203,7652 10247,7652 10291,7664 10329,7686 10367,7708 10398,7739 10420,7777 10442,7815 10454,7859 10454,7903 L 10454,7903 Z"/>
   </g>
  </g>
  <g class="com.sun.star.drawing.CustomShape">
   <g id="id11">
    <rect class="BoundingBox" stroke="none" fill="none" x="8752" y="7951" width="503" height="503"/>
    <path fill="rgb(51,105,30)" stroke="none" d="M 9254,8203 C 9254,8246 9242,8290 9220,8328 9198,8366 9167,8397 9129,8419 9091,8441 9047,8453 9003,8453 8960,8453 8916,8441 8878,8419 8840,8397 8809,8366 8787,8328 8765,8290 8753,8246 8753,8203 8753,8159 8765,8115 8787,8077 8809,8039 8840,8008 8878,7986 8916,7964 8960,7952 9003,7952 9047,7952 9091,7964 9129,7986 9167,8008 9198,8039 9220,8077 9242,8115 9254,8159 9254,8203 L 9254,8203 Z"/>
   </g>
  </g>
  <g class="com.sun.star.drawing.CustomShape">
   <g id="id12">
    <rect class="BoundingBox" stroke="none" fill="none" x="9353" y="10352" width="502" height="502"/>
    <path fill="rgb(230,81,0)" stroke="none" d="M 9854,10603 C 9854,10646 9842,10690 9820,10728 9798,10766 9767,10797 9729,10819 9691,10841 9647,10853 9604,10853 9560,10853 9516,10841 9478,10819 9440,10797 9409,10766 9387,10728 9365,10690 9353,10646 9353,10603 9353,10559 9365,10515 9387,10477 9409,10439 9440,10408 9478,10386 9516,10364 9560,10352 9604,10352 9647,10352 9691,10364 9729,10386 9767,10408 9798,10439 9820,10477 9842,10515 9854,10559 9854,10603 L 9854,10603 Z"/>
   </g>
  </g>
  <g class="com.sun.star.drawing.CustomShape">
   <g id="id13">
    <rect class="BoundingBox" stroke="none" fill="none" x="8104" y="10651" width="502" height="502"/>
    <path fill="rgb(255,255,0)" stroke="none" d="M 8605,10902 C 8605,10945 8593,10989 8571,11027 8549,11065 8518,11096 8480,11118 8442,11140 8398,11152 8355,11152 8311,11152 8267,11140 8229,11118 8191,11096 8160,11065 8138,11027 8116,10989 8104,10945 8104,10902 8104,10858 8116,10814 8138,10776 8160,10738 8191,10707 8229,10685 8267,10663 8311,10651 8355,10651 8398,10651 8442,10663 8480,10685 8518,10707 8549,10738 8571,10776 8593,10814 8605,10858 8605,10902 L 8605,10902 Z"/>
   </g>
  </g>
 </g>
</svg>